<?xml version="1.0" encoding="utf-8"?>
<!-- Generator: Adobe Illustrator 22.1.0, SVG Export Plug-In . SVG Version: 6.00 Build 0)  -->
<svg version="1.1" id="Layer_1" xmlns="http://www.w3.org/2000/svg" xmlns:xlink="http://www.w3.org/1999/xlink" x="0px" y="0px"
	 viewBox="0 0 455.9 455.9" style="enable-background:new 0 0 455.9 455.9;" xml:space="preserve">
<style type="text/css">
	.st0{fill:#7E7E7E;}
</style>
<g>
	<path class="st0" d="M321.2,257.6c15.5-20.5,23.7-44.9,23.7-70.6c0-31.6-12.4-61.2-34.9-83.3c-22.5-22.2-52.3-34.1-83.8-33.7
		c-30.6,0.4-59.4,12.7-81.2,34.6c-21.7,21.9-33.9,50.7-34.1,81.3c-0.2,26.2,8,51.1,23.9,71.9c25.7,33.8,39.9,75.1,39.9,116.5v45.2
		c0,20.1,16.3,36.4,36.4,36.4h33.9c20.1,0,36.4-16.3,36.4-36.4v-45.2C281.3,332.4,295,292.1,321.2,257.6z M146.7,248.7
		c-13.8-18.1-21-39.8-20.8-62.7c0.5-54.9,45.6-100.3,100.5-101c27.6-0.4,53.5,10,73.1,29.4c19.6,19.3,30.4,45.1,30.4,72.6
		c0,22.4-7.1,43.7-20.7,61.6c-27.6,36.4-42.5,78.8-43.1,122.9h-76.5C189,327.8,173.9,284.3,146.7,248.7z M189.7,414.4v-6.1l76.6,8.8
		v2.4c0,1.3-0.1,2.5-0.3,3.7L189.7,414.4z M189.7,393.2v-6.8h76.6V402L189.7,393.2z M211.1,440.9c-8.1,0-15.1-4.5-18.7-11.1
		l64.6,7.4c-3.4,2.3-7.5,3.7-12,3.7L211.1,440.9L211.1,440.9z"/>
	<path class="st0" d="M153.8,198.2c-0.6-3.9-0.9-8-0.8-12c0-4.1-3.3-7.5-7.4-7.6c-4.1,0-7.5,3.3-7.6,7.4c0,4.8,0.3,9.6,1,14.3
		c0.6,3.7,3.8,6.4,7.4,6.4c0.4,0,0.7,0,1.1-0.1C151.6,206.1,154.4,202.3,153.8,198.2L153.8,198.2z"/>
	<path class="st0" d="M197.9,312.1c0.8,0,1.6-0.1,2.3-0.4c3.9-1.3,6.1-5.5,4.8-9.5c-8.3-25.3-20.7-48.8-36.8-70
		c-2.7-3.5-5-7.2-7-11.1c-1.9-3.7-6.4-5.1-10.1-3.2c-3.7,1.9-5.1,6.4-3.2,10.1c2.4,4.6,5.2,9.1,8.4,13.3
		c15.1,19.8,26.7,41.9,34.5,65.6C191.8,310.1,194.8,312.1,197.9,312.1L197.9,312.1z"/>
	<path class="st0" d="M306.7,212.6c-3.8-1.6-8.2,0.1-9.9,3.9c-2.4,5.5-5.5,10.8-9.1,15.6c-2.5,3.3-1.9,8,1.4,10.5
		c1.4,1,2.9,1.5,4.5,1.5c2.3,0,4.5-1,6-3c4.4-5.8,8.1-12.1,11-18.8C312.3,218.7,310.6,214.3,306.7,212.6L306.7,212.6z"/>
	<path class="st0" d="M227.9,111.9c41.4,0,75,33.6,75,75c0,2.4-0.1,4.7-0.3,7c-0.4,4.1,2.7,7.8,6.8,8.2c0.2,0,0.5,0,0.7,0
		c3.8,0,7.1-2.9,7.5-6.8c0.3-2.8,0.4-5.6,0.4-8.4c0-49.6-40.4-90-90-90c-4.1,0-7.5,3.4-7.5,7.5S223.8,111.9,227.9,111.9L227.9,111.9
		z"/>
	<path class="st0" d="M227.9,57c4.1,0,7.5-3.4,7.5-7.5v-42c0-4.1-3.4-7.5-7.5-7.5s-7.5,3.4-7.5,7.5v42C220.4,53.6,223.8,57,227.9,57
		z"/>
	<path class="st0" d="M152.1,71.8c1.4,2.4,3.9,3.8,6.5,3.8c1.3,0,2.6-0.3,3.7-1c3.6-2.1,4.8-6.7,2.7-10.2l-21-36.4
		c-2.1-3.6-6.7-4.8-10.2-2.7c-3.6,2.1-4.8,6.7-2.7,10.2L152.1,71.8z"/>
	<path class="st0" d="M388.2,272.1l-36.4-21c-3.6-2.1-8.2-0.8-10.2,2.7c-2.1,3.6-0.8,8.2,2.7,10.2l36.4,21c1.2,0.7,2.5,1,3.7,1
		c2.6,0,5.1-1.3,6.5-3.8C393,278.8,391.8,274.2,388.2,272.1L388.2,272.1z"/>
	<path class="st0" d="M67.7,104.4l36.4,21c1.2,0.7,2.5,1,3.7,1c2.6,0,5.1-1.3,6.5-3.8c2.1-3.6,0.8-8.2-2.7-10.2l-36.4-21
		c-3.6-2.1-8.2-0.8-10.2,2.7C62.8,97.7,64.1,102.3,67.7,104.4z"/>
	<path class="st0" d="M408.7,180.7h-42c-4.1,0-7.5,3.4-7.5,7.5s3.4,7.5,7.5,7.5h42c4.1,0,7.5-3.4,7.5-7.5S412.8,180.7,408.7,180.7z"
		/>
	<path class="st0" d="M96.7,188.2c0-4.1-3.4-7.5-7.5-7.5h-42c-4.1,0-7.5,3.4-7.5,7.5s3.4,7.5,7.5,7.5h42
		C93.3,195.7,96.7,192.4,96.7,188.2z"/>
	<path class="st0" d="M348.1,126.4c1.3,0,2.6-0.3,3.7-1l36.4-21c3.6-2.1,4.8-6.7,2.7-10.2c-2.1-3.6-6.7-4.8-10.2-2.7l-36.4,21
		c-3.6,2.1-4.8,6.7-2.7,10.2C343,125,345.5,126.4,348.1,126.4L348.1,126.4z"/>
	<path class="st0" d="M104,251.1l-36.4,21c-3.6,2.1-4.8,6.7-2.7,10.2c1.4,2.4,3.9,3.8,6.5,3.8c1.3,0,2.6-0.3,3.7-1l36.4-21
		c3.6-2.1,4.8-6.7,2.7-10.2C112.2,250.3,107.6,249.1,104,251.1z"/>
	<path class="st0" d="M293.6,74.6c1.2,0.7,2.5,1,3.7,1c2.6,0,5.1-1.3,6.5-3.8l21-36.4c2.1-3.6,0.8-8.2-2.7-10.2
		c-3.6-2.1-8.2-0.8-10.2,2.7l-21,36.4C288.8,67.9,290,72.5,293.6,74.6L293.6,74.6z"/>
</g>
</svg>
