<?xml version="1.0" encoding="utf-8"?>
<!-- Generator: Adobe Illustrator 22.1.0, SVG Export Plug-In . SVG Version: 6.00 Build 0)  -->
<svg version="1.1" id="Capa_1" xmlns="http://www.w3.org/2000/svg" xmlns:xlink="http://www.w3.org/1999/xlink" x="0px" y="0px"
	 viewBox="0 0 512 512" style="enable-background:new 0 0 512 512;" xml:space="preserve">
<style type="text/css">
	.st0{fill:#7E7E7E;}
</style>
<g>
	<g>
		<path class="st0" d="M296,232c-5.5,0-10,4.5-10,10s4.5,10,10,10s10-4.5,10-10S301.5,232,296,232z"/>
	</g>
</g>
<g>
	<g>
		<path class="st0" d="M256,172c-5.5,0-10,4.5-10,10s4.5,10,10,10c5.5,0,10-4.5,10-10S261.5,172,256,172z"/>
	</g>
</g>
<g>
	<g>
		<path class="st0" d="M136,432c-5.5,0-10,4.5-10,10s4.5,10,10,10s10-4.5,10-10S141.5,432,136,432z"/>
	</g>
</g>
<g>
	<g>
		<path class="st0" d="M454.4,407.7L326,179.4V58.3c11.6-4.1,20-15.2,20-28.3c0-16.5-13.5-30-30-30H196c-16.5,0-30,13.5-30,30
			c0,13,8.4,24.2,20,28.3v121.1L57.6,407.7c-12.3,21.9-12.1,48,0.6,69.7C70.9,499,93.4,512,118.6,512h274.8
			c25.1,0,47.7-13,60.4-34.7C466.5,455.6,466.7,429.6,454.4,407.7z M204.7,186.9c0.8-1.5,1.3-3.2,1.3-4.9V60h10c5.5,0,10-4.5,10-10
			s-4.5-10-10-10h-20c-5.5,0-10-4.5-10-10s4.5-10,10-10h120c5.5,0,10,4.5,10,10s-4.5,10-10,10h-20c-5.5,0-10,4.5-10,10s4.5,10,10,10
			h10v122c0,1.7,0.4,3.4,1.3,4.9l58.9,104.8c-36-2.9-71.9,4.4-104.8,21.4c-42.4,21.9-89.5,25.8-134,11.2L204.7,186.9z M436.6,467.2
			c-9.1,15.5-25.2,24.8-43.2,24.8H118.6c-18,0-34.1-9.3-43.2-24.8c-9.1-15.5-9.2-34.1-0.4-49.8l42.4-75.4
			c20.6,7.2,41.8,10.8,63.4,10.8c3.2,0,6.4-0.1,9.6-0.2c27.9-1.4,54.9-8.7,80.1-21.8c33.8-17.5,71-23.5,107.8-17.6L437,417.5
			C445.8,433.1,445.6,451.7,436.6,467.2z"/>
	</g>
</g>
<g>
	<g>
		<path class="st0" d="M216,232c-16.5,0-30,13.5-30,30s13.5,30,30,30s30-13.5,30-30S232.5,232,216,232z M216,272
			c-5.5,0-10-4.5-10-10s4.5-10,10-10s10,4.5,10,10S221.5,272,216,272z"/>
	</g>
</g>
<g>
	<g>
		<path class="st0" d="M376,432H176c-5.5,0-10,4.5-10,10s4.5,10,10,10h200c5.5,0,10-4.5,10-10S381.5,432,376,432z"/>
	</g>
</g>
</svg>
